<svg width="159" height="39" viewBox="0 0 159 39" fill="none" xmlns="http://www.w3.org/2000/svg">
<path d="M151.144 1.01309H156.884V12.5265H151.144V1.01309ZM141.213 6.76977L140.877 6.8862C140.877 6.8862 142.864 8.54205 142.864 8.65848C142.98 8.77491 143.083 8.77491 142.98 9.09832C142.864 9.43466 142.76 9.75807 142.76 9.75807C142.76 9.75807 144.527 9.42173 144.747 9.31823C144.966 9.31823 145.082 9.31823 145.082 9.53815C145.082 9.75807 144.966 11.6468 144.966 11.6468H145.521C145.521 11.6468 145.404 9.65458 145.404 9.53815C145.404 9.31823 145.521 9.31823 145.74 9.31823C145.959 9.31823 147.726 9.75807 147.726 9.75807C147.726 9.75807 147.61 9.31824 147.507 9.09832C147.391 8.76197 147.507 8.76197 147.623 8.65848C147.739 8.54205 149.609 6.8862 149.609 6.8862L149.274 6.76977C149.055 6.65334 149.158 6.54985 149.158 6.43343C149.158 6.317 149.493 5.21741 149.493 5.21741C149.493 5.21741 148.616 5.43733 148.5 5.43733C148.384 5.43733 148.281 5.43733 148.281 5.3209C148.281 5.20447 148.061 4.76464 148.061 4.76464C148.061 4.76464 147.068 5.87716 146.952 5.98065C146.733 6.20057 146.514 5.98065 146.617 5.76074C146.617 5.54082 147.171 3.21227 147.171 3.21227C147.171 3.21227 146.617 3.54862 146.398 3.65211C146.178 3.76854 146.062 3.76854 146.062 3.53568C145.946 3.31576 145.288 2.09975 145.288 1.98332C145.288 1.98332 144.631 3.31576 144.514 3.53568C144.398 3.7556 144.295 3.7556 144.179 3.65211C143.96 3.53568 143.405 3.21227 143.405 3.21227C143.405 3.21227 143.96 5.54082 143.96 5.76074C143.96 5.98065 143.844 6.09708 143.625 5.98065L142.515 4.76464C142.515 4.76464 142.399 5.10098 142.296 5.20447C142.296 5.3209 142.18 5.42439 142.077 5.3209C141.858 5.3209 140.968 5.10098 140.968 5.10098C140.968 5.10098 141.303 6.21351 141.406 6.317C141.432 6.43343 141.432 6.65334 141.213 6.76977ZM133.809 1.01309H139.549V12.5265H133.809V1.01309Z" fill="#EB3323"/>
<path d="M158.096 35.553C157.658 36.5491 156.768 36.8854 156.213 36.8854C155.555 36.8854 153.569 36.769 153.569 31.5686C153.569 31.5686 153.569 21.0513 153.569 20.3786C153.569 16.9505 150.925 14.1821 144.076 14.1821C136.686 14.1821 136.57 17.8301 136.57 18.7228C136.453 19.7189 137.008 20.8314 138.891 20.8314C140.542 20.8314 140.994 18.9427 141.213 18.2829C141.432 17.5067 141.548 15.2946 144.528 15.2946C147.068 15.2946 148.616 17.5067 148.719 20.715C148.719 21.2712 148.719 21.5946 148.719 21.931C148.719 22.1509 148.719 22.2673 148.719 22.4872V22.6037C148.5 23.7162 147.946 24.2595 146.952 24.7123C145.624 25.3721 141.767 25.9283 141.316 26.0447C139.768 26.3811 135.46 27.4807 135.576 32.0214C135.693 36.4456 140.104 37.998 143.199 37.8945C146.179 37.778 147.946 36.562 148.719 35.9023C149.158 35.5659 149.158 35.5659 149.493 36.0187C149.932 36.4585 151.376 37.9074 154.794 37.9074C158.328 37.9074 158.767 36.2515 158.986 35.6953C159.089 35.3331 158.316 34.9967 158.096 35.553ZM144.295 36.769C141.2 36.769 140.426 34.2205 140.426 32.8881C140.426 31.6721 141.084 29.1236 144.179 27.3513C144.179 27.3513 145.611 26.4716 148.371 25.3591C148.487 25.3591 148.59 25.3591 148.59 25.3591C148.59 25.3591 148.707 25.4755 148.707 25.579V25.6955V25.8119V30.456C148.719 34.117 146.952 36.769 144.295 36.769ZM134.145 36.6655C133.706 36.5491 130.946 36.8854 130.946 28.4768C130.946 20.0681 130.946 2.00895 130.946 2.00895C130.946 1.6726 130.946 0.792929 129.953 0.792929C128.96 0.792929 122.33 1.12927 121.892 1.23277C121.453 1.23277 121.118 1.78903 121.892 1.78903C122.666 1.90546 126.2 2.12538 126.2 7.98556C126.2 10.8704 126.2 13.7422 126.2 15.8509C126.2 15.9673 126.2 16.0708 126.2 16.0708C126.2 16.2907 126.2 16.4071 126.084 16.5106C126.084 16.5106 126.084 16.5106 126.084 16.6271C125.967 16.7435 125.864 16.6271 125.529 16.4071C124.974 15.9673 122.433 14.4149 119.235 14.4149C114.05 14.4149 107.639 18.1794 107.639 25.9283C107.639 34.2335 113.495 38.2179 119.557 38.2179C122.537 38.2179 124.639 36.8854 125.413 36.4456C126.29 35.8893 126.187 36.0058 126.29 36.7819C126.406 37.3382 126.29 38.4378 127.838 38.3343C129.489 38.1144 133.474 37.6745 134.235 37.5581C135.022 37.2218 134.803 36.769 134.145 36.6655ZM120.46 36.9889C115.598 36.9889 113.07 31.2322 113.07 25.6955C113.07 19.6024 116.487 15.5145 120.138 15.7344C124.884 16.0708 126.096 19.8353 126.213 26.5881C126.213 27.0279 126.213 27.4677 126.213 28.024C126.084 34.6733 123.323 36.9889 120.46 36.9889ZM107.536 35.553C107.098 36.5491 106.208 36.8854 105.653 36.8854C104.995 36.8854 103.009 36.769 103.009 31.5686C103.009 31.5686 103.009 21.0513 103.009 20.3786C103.009 16.9505 100.365 14.1821 93.5162 14.1821C86.1257 14.1821 86.0096 17.8301 86.0096 18.7228C85.8935 19.7189 86.4482 20.8314 88.3313 20.8314C89.9822 20.8314 90.4336 18.9427 90.6529 18.2829C90.8722 17.5067 90.9882 15.2946 93.9677 15.2946C96.5086 15.2946 98.1595 17.5067 98.1595 20.8314V20.9478C98.1595 21.0642 98.1595 21.1677 98.1595 21.1677V21.5041C98.1595 21.6205 98.1595 21.8404 98.1595 21.9439C98.0434 23.5998 97.6049 24.156 96.2764 24.8287C94.9479 25.5014 91.0914 26.0447 90.64 26.1612C89.0922 26.4975 84.7843 27.5971 84.9004 32.1378C85.0165 36.562 89.4276 38.1144 92.5231 38.0109C95.5025 37.8945 97.2695 36.6784 98.0434 36.0187C98.4819 35.6823 98.4819 35.6823 98.8173 36.1351C99.2558 36.575 100.7 38.0238 104.118 38.0238C107.652 38.0238 108.091 36.368 108.31 35.8117C108.529 35.3331 107.872 34.9967 107.536 35.553ZM93.8516 36.769C90.7561 36.769 89.9822 34.2205 89.9822 32.8881C89.9822 31.6721 90.64 29.1236 93.7355 27.3513C93.7355 27.3513 95.1672 26.4716 97.9273 25.3591C98.0434 25.3591 98.1466 25.3591 98.1466 25.3591V25.4755C98.1466 25.592 98.1466 25.6955 98.1466 25.9154V25.799C98.1466 25.799 98.1466 25.799 98.1466 25.9154V30.5595C98.1595 34.117 96.3925 36.769 93.8516 36.769ZM83.2495 36.6655C82.3724 36.4456 80.8247 35.4495 80.8247 30.5725V21.7111C80.8247 19.6024 81.0439 14.1821 72.7635 14.1821C68.4555 14.1821 66.0307 16.3942 65.8115 16.5106C65.4761 16.847 65.2568 16.9505 65.1537 16.3942C65.0376 15.9544 64.8183 15.2817 64.7151 14.8418C64.599 14.5055 64.3798 14.1821 63.6059 14.2856C62.832 14.402 57.9695 15.1652 57.0924 15.3981C56.3186 15.618 56.5378 15.9544 57.0924 16.0579C57.6471 16.1613 60.2911 16.3942 60.2911 20.9349C60.2911 25.4755 60.2911 30.456 60.2911 30.456C60.2911 35.9928 59.1819 36.4327 58.1888 36.769C56.8603 37.1054 57.531 37.5452 58.0727 37.5452C58.0727 37.5452 67.9009 37.5452 68.1202 37.5452C68.778 37.5452 69.1133 36.8854 67.7848 36.6655C66.4564 36.4456 65.2439 35.6694 65.2439 31.3487C65.2439 30.9088 65.2439 26.1482 65.2439 25.2556C65.2439 22.9271 64.6893 15.8379 71.0996 15.7344C75.6268 15.618 76.0653 19.3825 76.0653 21.8275V31.2452C76.0653 35.1261 74.9561 36.3421 73.6405 36.562C72.4281 36.7819 72.6474 37.3382 73.3052 37.3382C73.5244 37.3382 83.5719 37.3382 83.5719 37.3382C84.1394 37.5452 84.6811 36.9889 83.2495 36.6655ZM56.4218 35.553C55.9832 36.5491 55.0933 36.8854 54.5387 36.8854C53.8809 36.8854 51.8946 36.769 51.8946 31.5686C51.8946 31.5686 51.8946 21.0513 51.8946 20.3786C51.8946 16.9505 49.2505 14.1821 42.4017 14.1821C35.0112 14.1821 34.8951 17.8301 34.8951 18.7228C34.779 19.7189 35.3336 20.8314 37.2167 20.8314C38.8676 20.8314 39.3191 18.9427 39.5383 18.2829C39.7576 17.5067 39.8737 15.2946 42.8531 15.2946C45.394 15.2946 46.9418 17.5067 47.0449 20.715C47.0449 21.2712 47.0449 21.5946 47.0449 21.931C47.0449 22.1509 47.0449 22.3708 46.9289 22.4872V22.6037C46.7096 23.7162 46.155 24.2595 45.1618 24.7123C43.8334 25.3721 39.9769 25.9283 39.5254 26.0447C37.9777 26.3811 33.6698 27.4807 33.7859 32.0214C33.9019 36.4456 38.313 37.998 41.4085 37.8945C44.388 37.778 46.155 36.562 46.9289 35.9023C47.3674 35.5659 47.3674 35.5659 47.7027 36.0187C48.1413 36.4585 49.5858 37.9074 53.0038 37.9074C56.5378 37.9074 56.9764 36.2515 57.1956 35.6953C57.4149 35.3331 56.641 34.9967 56.4218 35.553ZM42.621 36.769C39.5254 36.769 38.7516 34.2205 38.7516 32.8881C38.7516 31.5556 39.4094 29.1236 42.5049 27.3513C42.5049 27.3513 43.9365 26.4716 46.6967 25.3591C46.8128 25.3591 46.916 25.3591 46.916 25.3591C46.916 25.3591 47.032 25.4755 47.032 25.579C47.032 25.579 47.032 25.6955 47.032 25.799V25.9154V30.5595C47.0449 34.117 45.2779 36.769 42.621 36.769ZM32.0188 27.1443C30.9096 30.6889 28.8202 36.4456 21.1975 36.6655C13.2523 36.7819 8.50589 31.3487 8.28663 21.2712C7.96418 10.534 12.5945 2.33236 19.7658 2.11244C27.827 1.99601 30.6904 11.6336 30.8064 13.0696C30.9225 14.1821 32.3542 14.0657 32.3542 12.9531C32.3542 12.3969 31.6964 2.87569 31.4771 1.76316C31.2579 0.650629 30.3679 1.1034 30.1486 1.54324C30.0326 1.87958 30.2647 1.20689 29.8133 2.20299C29.3748 3.1991 28.1624 2.64283 27.7109 2.53934C26.3824 1.98308 23.8415 0.650629 19.7658 0.767056C10.389 1.01285 0.780023 7.98556 0.999288 20.1587C1.21855 32.0084 10.7114 38.6448 19.5465 38.5413C27.6077 38.4249 32.1349 33.3409 33.4505 27.4677C33.9019 26.0318 32.4703 25.6955 32.0188 27.1443Z" fill="black"/>
</svg>
