<svg viewBox="0 0 53 53" fill="none" xmlns="http://www.w3.org/2000/svg">
<g clip-path="url(#clip0)">
<path d="M35.2336 19.8547C44.9111 19.7068 52.8097 27.3236 52.9971 37.0003C53.0246 38.4211 52.8826 39.804 52.5901 41.1304C52.0946 43.3764 51.8001 45.6619 51.8001 47.9619V52.4077C51.8001 53.0888 51.248 53.641 50.5668 53.641H46.1211C43.8211 53.641 41.5355 53.9355 39.2896 54.4309C37.9632 54.7234 36.5804 54.8655 35.1596 54.8379C25.483 54.6507 17.8662 46.7522 18.0138 37.075C18.1578 27.6292 25.7879 19.999 35.2336 19.8547Z" fill="url(#paint0_linear)"/>
<path d="M35.2336 19.8547C44.9111 19.7068 52.8097 27.3236 52.9971 37.0003C53.0246 38.4211 52.8826 39.804 52.5901 41.1304C52.0946 43.3764 51.8001 45.6619 51.8001 47.9619V52.4077C51.8001 53.0888 51.248 53.641 50.5668 53.641H46.1211C43.8211 53.641 41.5355 53.9355 39.2896 54.4309C37.9632 54.7234 36.5804 54.8655 35.1596 54.8379C25.483 54.6507 17.8662 46.7522 18.0138 37.075C18.1578 27.6292 25.7879 19.999 35.2336 19.8547Z" fill="url(#paint1_linear)"/>
<path d="M21.6449 3.89027C9.85512 3.71016 0.232429 12.9894 0.0040743 24.7783C-0.0293612 26.509 0.143613 28.1939 0.50012 29.8098C1.10361 32.5459 1.4624 35.3304 1.4624 38.1325V43.5486C1.4624 44.3784 2.13504 45.0511 2.96493 45.0511H8.38106C11.183 45.0511 13.9675 45.4099 16.7037 46.0134C18.3196 46.3698 20.0044 46.5429 21.7351 46.5093C33.5238 46.2811 42.803 36.6587 42.6233 24.8691C42.4478 13.3616 33.1523 4.06594 21.6449 3.89027Z" fill="url(#paint2_linear)"/>
<path d="M13.6839 24.0581C13.0818 23.4183 12.2297 23.0166 11.2817 23.0166C9.45846 23.0166 7.98047 24.4946 7.98047 26.3178C7.98047 27.2657 8.38211 28.1178 9.02194 28.72L16.1432 35.8412C16.7453 36.481 17.5975 36.8827 18.5454 36.8827C20.3686 36.8827 21.8466 35.4047 21.8466 33.5815C21.8466 32.6336 21.4448 31.7815 20.8051 31.1793L13.6839 24.0581Z" fill="url(#paint3_linear)"/>
<path d="M11.2817 29.619C13.1049 29.619 14.5829 28.141 14.5829 26.3178C14.5829 24.4946 13.1049 23.0166 11.2817 23.0166C9.45847 23.0166 7.98047 24.4946 7.98047 26.3178C7.98047 28.141 9.45847 29.619 11.2817 29.619Z" fill="white"/>
<path d="M23.0198 24.0581C22.4178 23.4183 21.5656 23.0166 20.6176 23.0166C18.7944 23.0166 17.3164 24.4946 17.3164 26.3178C17.3164 27.2657 17.718 28.1178 18.3579 28.72L25.4791 35.8412C26.0813 36.481 26.9334 36.8827 27.8813 36.8827C29.7045 36.8827 31.1825 35.4047 31.1825 33.5815C31.1825 32.6336 30.7808 31.7815 30.141 31.1793L23.0198 24.0581Z" fill="url(#paint4_linear)"/>
<path d="M20.6176 29.619C22.4408 29.619 23.9188 28.141 23.9188 26.3178C23.9188 24.4946 22.4408 23.0166 20.6176 23.0166C18.7944 23.0166 17.3164 24.4946 17.3164 26.3178C17.3164 28.141 18.7944 29.619 20.6176 29.619Z" fill="white"/>
<path d="M32.3557 24.0581C31.7537 23.4183 30.9015 23.0166 29.9536 23.0166C28.1303 23.0166 26.6523 24.4946 26.6523 26.3178C26.6523 27.2657 27.0541 28.1178 27.6938 28.72L34.8151 35.8412C35.4172 36.481 36.2693 36.8827 37.2172 36.8827C39.0404 36.8827 40.5184 35.4047 40.5184 33.5815C40.5184 32.6336 40.1167 31.7815 39.477 31.1793L32.3557 24.0581Z" fill="url(#paint5_linear)"/>
<path d="M29.9555 29.619C31.7787 29.619 33.2567 28.141 33.2567 26.3178C33.2567 24.4946 31.7787 23.0166 29.9555 23.0166C28.1323 23.0166 26.6543 24.4946 26.6543 26.3178C26.6543 28.141 28.1323 29.619 29.9555 29.619Z" fill="white"/>
</g>
<defs>
<linearGradient id="paint0_linear" x1="31.9746" y1="33.8165" x2="57.6593" y2="59.5012" gradientUnits="userSpaceOnUse">
<stop stop-color="#A7F3CE"/>
<stop offset="1" stop-color="#61DB99"/>
</linearGradient>
<linearGradient id="paint1_linear" x1="40.3824" y1="42.2239" x2="29.473" y2="31.3155" gradientUnits="userSpaceOnUse">
<stop stop-color="#61DB99" stop-opacity="0"/>
<stop offset="1" stop-color="#009E74"/>
</linearGradient>
<linearGradient id="paint2_linear" x1="13.5263" y1="21.755" x2="40.644" y2="48.8726" gradientUnits="userSpaceOnUse">
<stop stop-color="#62E1FB"/>
<stop offset="1" stop-color="#00A2F3"/>
</linearGradient>
<linearGradient id="paint3_linear" x1="18.6253" y1="33.6621" x2="4.34739" y2="19.3846" gradientUnits="userSpaceOnUse">
<stop stop-color="#00A2F3" stop-opacity="0"/>
<stop offset="1" stop-color="#0075CD"/>
</linearGradient>
<linearGradient id="paint4_linear" x1="27.9606" y1="33.6617" x2="13.6831" y2="19.3843" gradientUnits="userSpaceOnUse">
<stop stop-color="#00A2F3" stop-opacity="0"/>
<stop offset="1" stop-color="#0075CD"/>
</linearGradient>
<linearGradient id="paint5_linear" x1="37.2965" y1="33.6619" x2="23.019" y2="19.3844" gradientUnits="userSpaceOnUse">
<stop stop-color="#00A2F3" stop-opacity="0"/>
<stop offset="1" stop-color="#0075CD"/>
</linearGradient>
<clipPath id="clip0">
<rect width="53" height="53" fill="white"/>
</clipPath>
</defs>
</svg>
