<svg width="21" height="20" viewBox="0 0 21 20" fill="current" xmlns="http://www.w3.org/2000/svg">
<path d="M15.8765 4.42291C12.7963 1.25534 7.73151 1.18453 4.56394 4.26474C1.39638 7.34496 1.32556 12.4098 4.40578 15.5773C7.48599 18.7449 12.5508 18.8157 15.7184 15.7355C18.8859 12.6553 18.9568 7.59047 15.8765 4.42291ZM3.16964 2.8309C7.12909 -1.01937 13.4601 -0.930853 17.3104 3.0286C21.1607 6.98806 21.0721 13.3191 17.1127 17.1694C13.1532 21.0196 6.8222 20.9311 2.97193 16.9716C-0.878337 13.0122 -0.789821 6.68116 3.16964 2.8309ZM13.7258 6.51436C14.1108 6.91031 14.102 7.54341 13.706 7.92844L11.5552 10.0199L13.6467 12.1707C14.0317 12.5666 14.0229 13.1997 13.6269 13.5847C13.231 13.9698 12.5979 13.9609 12.2128 13.565L10.1214 11.4142L7.97062 13.5057C7.57468 13.8907 6.94157 13.8818 6.55655 13.4859C6.17152 13.0899 6.18037 12.4568 6.57632 12.0718L8.72709 9.98035L6.63563 7.82959C6.2506 7.43364 6.25945 6.80054 6.6554 6.41551C7.05135 6.03048 7.68445 6.03934 8.06947 6.43528L10.1609 8.58605L12.3117 6.49459C12.7076 6.10957 13.3408 6.11842 13.7258 6.51436Z" fill="current"/>
</svg>
