<svg viewBox="0 0 27 27" fill="none" xmlns="http://www.w3.org/2000/svg">
<g clip-path="url(#clip0)">
<path d="M17.8356 18.1688L14.4607 14.7883C14.2414 14.5683 13.8852 14.5679 13.6653 14.7873C13.5595 14.8928 13.5001 15.036 13.5 15.1854V23.0657C13.5002 23.3077 13.6551 23.5225 13.8847 23.599C13.942 23.6183 14.002 23.6282 14.0625 23.6282C14.2395 23.6282 14.4063 23.5449 14.5125 23.4032L17.8873 18.9034C18.0551 18.6797 18.033 18.3668 17.8356 18.1688Z" fill="#64B5F6"/>
<path d="M15.3638 16.908L11.9889 15.7831C11.6943 15.6846 11.3756 15.8436 11.2771 16.1382C11.2385 16.2537 11.2384 16.3785 11.2768 16.4941L13.5267 23.2438C13.6034 23.4738 13.8187 23.6288 14.0611 23.6285H14.0959C14.35 23.6127 14.5619 23.4281 14.6123 23.1786L15.7372 17.5538C15.7939 17.275 15.6336 16.9979 15.3638 16.908Z" fill="#1976D2"/>
<path d="M26.7586 1.2363C26.5794 1.11096 26.3438 1.10089 26.1545 1.21041L4.78042 13.5849C4.51169 13.7407 4.42015 14.0849 4.57597 14.3537C4.64484 14.4725 4.75479 14.5619 4.88504 14.6052L14.9871 17.9733L22.8393 21.3392C23.125 21.4613 23.4555 21.3288 23.5776 21.0432C23.5945 21.0035 23.6069 20.9621 23.6144 20.9196L26.9892 1.79537C27.0276 1.58006 26.9376 1.36196 26.7586 1.2363Z" fill="#2196F3"/>
<path d="M26.8935 2.0239C27.075 1.77178 27.0177 1.42027 26.7656 1.23877C26.541 1.07714 26.2322 1.10282 26.0375 1.29941L11.3691 16.7698L15.6023 18.2322L26.8935 2.0239Z" fill="#1976D2"/>
<path d="M1.37444 22.1607C1.23317 22.1609 1.09707 22.1078 0.99308 22.0122C0.712597 21.7543 0.436597 21.4891 0.165131 21.2169C-0.054815 20.9972 -0.0550786 20.6409 0.164551 20.421C0.384181 20.201 0.740492 20.2008 0.960438 20.4204C1.22141 20.6814 1.48692 20.9368 1.7558 21.1842C1.98445 21.3945 1.99932 21.7504 1.78902 21.979C1.68234 22.095 1.53195 22.1609 1.37444 22.1607Z" fill="#1976D2"/>
<path d="M9.03674 25.8675C8.49476 25.8658 7.95431 25.8096 7.42356 25.6999C7.11698 25.6498 6.90905 25.3606 6.9592 25.054C7.0093 24.7474 7.29848 24.5395 7.60507 24.5896C7.61967 24.592 7.63423 24.595 7.64857 24.5986C8.10644 24.6931 8.57265 24.7413 9.04012 24.7426H9.04349H9.29661C9.58975 24.7146 9.85014 24.9295 9.87814 25.2226C9.88009 25.2429 9.88083 25.2633 9.88046 25.2837C9.89185 25.5939 9.64965 25.8548 9.33938 25.8664H9.04576L9.03674 25.8675ZM5.00605 24.7909C4.91599 24.7909 4.82729 24.7694 4.7473 24.7279C4.19435 24.4386 3.66043 24.1143 3.14872 23.7571C2.89945 23.5717 2.84767 23.2193 3.03303 22.97C3.20994 22.7322 3.54105 22.6724 3.78994 22.8335C4.26121 23.1649 4.75347 23.4656 5.26365 23.7334C5.53949 23.8763 5.64733 24.2157 5.50448 24.4916C5.40782 24.6782 5.21514 24.7954 5.00489 24.7954L5.00605 24.7909Z" fill="#1976D2"/>
<path d="M11.9303 25.2639C11.6197 25.2664 11.3658 25.0167 11.3633 24.706C11.3615 24.4789 11.4964 24.2729 11.7054 24.1839C12.0292 24.0454 12.3437 23.8861 12.647 23.7069C12.9183 23.5558 13.2609 23.6532 13.4121 23.9246C13.558 24.1865 13.4728 24.5168 13.2184 24.6755C12.8734 24.8794 12.5158 25.061 12.1475 25.2189C12.0788 25.2481 12.005 25.2634 11.9303 25.2639Z" fill="#1976D2"/>
</g>
<defs>
<clipPath id="clip0">
<rect width="27" height="27" fill="white"/>
</clipPath>
</defs>
</svg>
