<svg width="727" height="312" viewBox="0 0 727 312" fill="none" xmlns="http://www.w3.org/2000/svg">
<g clip-path="url(#clip0)">
<g opacity="0.43">
<g opacity="0.6">
<path d="M302.687 -11.4957C303.672 -10.0183 304.164 -8.04852 306.133 -7.39191C306.954 -7.0636 307.282 -5.91454 308.103 -5.25793C309.252 -4.10886 310.401 -2.63149 311.878 -1.81073C316.637 0.979862 320.577 4.75538 324.023 9.84411C323.203 9.84411 322.382 9.5158 321.889 9.84411C321.397 10.1724 321.069 11.4856 321.233 11.6498C323.367 13.1272 323.202 14.7687 322.054 16.9027C321.397 18.2159 321.889 19.3649 323.695 18.5442C324.187 18.38 324.68 18.0517 325.336 17.8876C327.47 17.5593 328.29 18.5442 327.142 20.514C326.157 22.1555 326.485 22.9763 328.126 23.7971C328.947 24.2895 329.768 25.2744 330.588 25.2744C334.691 25.6027 336.004 28.3933 336.989 31.6764C337.153 32.1689 337.481 32.6613 337.974 33.4821C338.959 30.0349 340.272 27.2443 338.466 24.1254C338.138 23.6329 338.138 22.9763 338.302 22.4838C338.466 21.4989 338.466 19.8574 339.123 19.5291C340.436 18.8725 340.764 20.1857 341.256 21.3348C341.585 22.1555 342.733 22.648 343.39 23.3046C346.508 26.0952 348.806 29.0499 348.806 33.9745C348.642 39.7199 352.745 43.4954 356.848 47.1067C357.012 47.2709 357.669 47.2709 357.997 47.1067C360.459 45.9577 361.936 41.8538 361.116 39.2274C359.638 34.9594 362.1 31.3481 361.444 26.4235C360.459 19.6932 357.833 12.7989 354.879 6.56106C359.31 8.36674 364.562 7.38182 368.173 4.26292C373.589 6.72521 378.513 10.6649 382.124 15.5894C378.513 17.3951 379.498 22.9763 382.124 25.9311C384.914 28.8858 388.853 30.8556 390.494 34.467C392.956 39.5557 390.002 45.4652 387.047 50.2256C386.063 51.8671 384.093 53.837 382.452 52.5238C381.795 52.0313 381.631 50.8822 381.139 50.0615C379.99 47.7633 375.887 48.0917 375.066 50.5539C376.379 52.0313 377.692 53.6728 379.005 55.1502C377.528 55.6426 375.887 56.2993 374.41 56.7917C373.589 55.3143 372.768 53.837 371.948 52.3596C368.337 52.3596 368.337 57.7766 368.829 61.5522C369.158 64.5069 368.829 67.4616 367.845 70.2522C367.188 72.2221 366.039 74.356 364.07 75.0127C361.28 75.9976 358.325 74.0277 355.864 72.5504C353.238 71.073 349.463 70.2522 347.821 72.7145C353.894 76.49 361.608 77.9674 368.665 76.6542C368.501 81.4146 368.337 86.3392 366.368 90.6071C364.398 94.8751 360.295 98.6506 355.535 98.4865C353.894 104.232 346.016 107.187 341.092 103.904C341.585 109.156 352.745 108.828 351.596 113.917C350.94 116.872 347.657 116.379 345.852 118.021C344.375 119.498 342.733 124.258 341.749 124.915C339.451 126.392 338.63 128.691 337.81 131.153C337.317 132.958 336.004 134.272 337.153 136.406C337.481 137.062 336.989 138.047 336.661 138.868C335.348 142.808 333.871 146.747 332.394 150.523C332.065 151.508 331.901 152.821 331.245 153.149C328.455 154.791 329.275 156.104 330.752 158.238C331.573 159.387 331.901 161.193 332.065 162.67C332.229 165.789 331.901 169.072 332.229 172.191C332.394 173.997 333.05 175.802 334.035 177.28C335.676 179.578 337.81 181.383 340.107 183.517C340.272 183.025 340.6 182.533 340.764 182.04C341.913 179.578 345.688 179.085 347.329 181.383C350.612 186.144 353.894 191.068 357.012 195.993C357.669 197.142 357.833 198.784 358.161 200.097C358.818 203.052 360.787 203.872 363.249 202.231C364.562 201.246 365.547 199.769 366.368 198.291C368.501 194.68 369.814 194.187 373.589 195.501C374.574 195.829 375.559 196.157 376.215 196.814C379.498 199.604 383.437 199.604 387.376 200.261C390.986 200.754 394.761 201.246 398.372 202.231C399.357 202.395 400.342 203.708 400.834 204.693C401.983 206.827 403.296 207.484 406.086 207.648C411.83 207.812 417.575 209.454 423.319 210.767C425.125 211.259 426.602 212.08 428.571 211.095C429.556 210.603 430.869 210.603 431.854 210.603C433.495 210.767 434.808 210.274 435.957 208.961C439.896 205.021 444.984 206.171 449.744 206.499C450.4 206.499 451.221 207.812 451.549 208.633C452.37 210.603 453.19 212.737 453.354 214.706C453.847 218.482 455.652 221.601 457.786 224.227C460.083 227.182 461.396 230.301 462.381 233.748C462.709 235.061 463.53 236.375 464.515 237.195C470.752 242.284 476.988 247.373 483.225 252.297C484.046 252.954 485.195 253.282 486.344 253.611C489.954 254.76 496.027 257.55 494.057 250.984C493.729 249.999 493.565 248.686 494.222 247.865C495.206 248.358 496.519 248.522 497.504 248.029C497.176 244.418 496.683 240.643 494.55 237.852C494.057 237.195 493.565 236.703 493.237 236.046C492.088 233.42 492.252 229.644 491.103 226.69C489.79 223.242 487.657 219.795 485.687 216.512C484.21 213.722 482.076 211.423 479.122 209.946C476.004 208.305 475.183 206.006 477.481 203.872C484.046 197.635 485.851 186.636 488.477 178.265C488.805 177.116 489.298 175.802 488.97 174.653C488.641 173.668 487.985 173.012 487.492 172.355C483.553 168.087 479.779 163.819 475.84 159.551C472.065 155.283 467.961 151.015 462.709 148.881C460.74 148.061 458.606 147.568 457.457 145.927C454.503 141.987 458.935 136.898 459.919 131.974C461.068 125.9 456.473 120.319 451.221 117.036C450.4 116.543 449.743 116.051 449.087 115.394C448.102 113.917 448.43 112.111 448.43 110.305C448.266 106.366 441.373 100.785 439.896 96.5166C438.583 92.9053 440.388 89.7864 443.999 88.9656C445.969 88.4732 447.774 87.8165 449.579 89.6222C449.908 89.9505 450.892 89.7864 451.549 89.7864C451.877 89.7864 452.205 89.6222 452.205 89.4581C453.354 87.16 456.637 92.0845 457.786 87.8166C458.278 86.175 461.396 85.1901 463.366 84.041C465.992 82.3995 468.454 81.5788 472.065 82.7278C476.496 84.2052 481.256 84.5335 485.687 86.3392C487.657 87.1599 489.134 87.9807 489.954 90.1147C490.118 90.7713 491.431 91.5921 491.596 91.4279C494.057 89.4581 496.848 90.443 499.474 90.2788C501.607 90.1147 503.249 90.1147 504.069 87.4883C504.561 85.6826 506.039 85.6826 507.188 87.4883C508.008 88.9656 508.501 90.6071 508.993 92.2487C509.649 94.5468 510.634 96.8449 510.962 99.1431C511.127 100.292 510.142 101.77 509.485 103.083C511.455 103.575 514.573 102.919 514.245 106.694C514.245 106.858 515.23 107.187 515.394 107.022C516.707 106.366 517.692 106.53 518.348 107.679C519.333 109.321 519.989 110.962 520.646 112.768C520.646 112.932 519.661 113.589 519.169 114.081C518.676 114.573 518.184 115.23 517.856 115.887C518.348 116.215 519.005 117.036 519.497 116.872C520.318 116.872 521.959 116.215 521.959 116.051C521.302 112.275 524.585 112.604 526.554 111.783C529.016 110.634 529.509 110.798 530.329 113.753C530.822 115.394 531.15 115.887 532.463 114.409C532.791 114.081 533.612 114.081 534.268 114.245C534.761 114.409 535.089 115.066 535.581 115.23C536.73 115.887 538.043 116.379 539.356 117.036C539.684 114.738 539.028 110.962 541.326 109.485C541.654 109.321 542.146 108.992 542.475 108.664C542.803 108.336 542.967 107.679 543.131 107.187C543.952 104.888 544.608 102.426 544.608 99.9638C544.608 96.3525 542.803 92.577 539.849 90.443C538.536 89.4581 537.058 88.8015 536.402 87.3241C537.715 87.1599 539.192 86.9958 540.505 86.9958C538.043 87.16 536.894 77.1466 536.402 75.6693C536.238 75.341 536.894 74.1919 537.387 74.0277C539.028 73.207 542.803 79.1165 544.772 79.9372C551.173 82.7278 557.574 85.3543 563.975 88.1449C564.796 88.4732 565.78 88.9656 566.273 89.7864C566.929 90.7713 566.765 92.4128 567.914 92.9053C568.406 93.2336 569.227 93.2336 569.391 93.726C569.555 94.0543 569.227 94.3827 569.227 94.711C568.735 96.5166 571.689 97.3374 573.494 96.8449C575.3 96.1883 577.597 95.3676 578.911 96.6808C580.059 97.8298 579.731 99.6355 580.552 100.949C581.865 102.754 584.655 102.098 586.789 102.59C589.25 103.247 591.22 105.873 590.892 108.5C590.728 109.813 590.071 111.29 590.728 112.604C591.056 113.26 591.876 113.588 592.533 113.917C595.651 115.394 606.155 119.006 608.125 115.066C609.438 117.036 610.587 119.006 611.9 120.647C613.869 122.781 615.182 122.453 616.003 119.662C616.659 117.692 620.763 115.722 622.732 116.872C624.373 117.856 625.358 117.528 626.179 115.887C626.835 114.409 627.984 113.753 629.625 114.245C632.087 115.066 634.057 114.738 635.534 112.275C635.698 111.947 636.847 111.619 637.339 111.783C637.832 112.111 638.324 112.932 638.16 113.589C638.16 114.738 637.668 115.722 637.339 116.872C636.847 118.841 637.996 119.99 639.473 118.841C641.771 117.036 643.74 117.528 645.874 118.841C648.172 120.155 650.141 119.99 651.946 118.021C653.916 115.722 655.885 116.215 658.183 117.528C663.107 120.155 666.225 124.423 669.016 128.855C669.836 130.004 670.329 131.481 672.134 131.317C674.432 131.317 675.252 132.958 675.088 134.764C674.924 136.734 674.432 138.704 673.447 140.345C670.493 145.598 667.374 150.687 664.092 155.776C661.794 159.551 660.481 163.163 662.451 167.595C662.943 168.744 662.779 170.385 662.615 171.698C662.286 174.161 661.63 176.787 661.302 179.25C661.138 180.727 660.481 181.383 659.168 181.219C656.542 180.727 655.229 182.04 654.08 184.01C653.26 185.487 651.946 186.801 650.962 188.114C649.649 189.755 648.5 192.053 645.874 190.084C645.71 189.919 645.217 189.919 645.053 190.084C642.427 191.725 639.637 193.202 637.503 195.172C633.893 198.62 630.282 202.067 625.194 203.38C623.881 203.708 622.896 204.857 621.911 206.006C619.614 208.469 617.48 211.259 614.198 212.737C611.736 213.886 611.572 216.676 611.243 219.139C610.915 222.422 610.751 225.705 610.259 228.988C609.93 230.958 609.11 232.435 607.304 233.912C605.499 235.39 604.514 238.18 604.022 240.478C603.201 245.567 602.709 250.656 602.38 255.745C601.724 262.311 601.396 268.877 600.903 275.443C600.903 275.607 601.232 275.935 601.56 276.428C602.38 271.832 603.365 267.399 603.529 263.131C604.022 255.252 606.484 248.194 611.079 241.956C613.705 238.344 616.659 235.061 619.285 231.45C621.583 228.659 623.881 225.869 626.015 223.078C628.805 219.303 633.893 217.333 638.488 218.482C641.935 219.303 642.591 222.914 644.725 225.212C644.889 225.541 644.397 226.525 644.068 227.018C642.92 228.824 641.442 230.465 640.786 232.435C639.801 234.897 638.16 235.882 635.698 236.046C633.236 236.046 631.267 237.031 629.954 239.165C628.969 240.807 629.461 241.792 631.267 242.284C633.072 242.777 635.37 241.792 636.683 244.09C636.683 244.09 638.324 243.761 638.324 243.433C638.981 239.001 642.427 238.18 645.71 236.867C645.71 238.673 645.71 240.478 645.71 242.284C645.71 243.926 646.038 245.731 646.202 247.209C650.633 245.075 651.29 245.731 651.946 253.282C653.588 251.805 654.901 251.805 656.378 253.282C656.87 253.939 658.019 254.596 658.511 254.431C661.63 253.611 664.584 253.446 667.374 255.416C667.867 255.745 669.508 254.76 670.164 254.103C671.806 252.462 673.119 251.148 675.909 251.477C677.55 251.641 679.848 249.014 681.325 247.209C683.13 245.075 682.802 244.911 685.1 246.716C685.428 247.045 686.413 247.045 686.741 246.88C688.054 245.567 688.711 244.254 687.726 242.284C686.249 239.001 684.607 235.718 684.936 232.107C685.1 229.152 686.085 226.361 684.279 223.571C683.787 222.914 684.115 221.108 684.772 220.288C685.428 219.467 686.741 219.139 687.726 218.482C687.89 219.303 688.054 220.123 688.382 220.944C688.711 221.765 688.875 223.407 689.367 223.407C693.963 224.227 693.634 227.675 693.634 231.122C693.634 231.286 693.963 231.614 694.127 232.107C695.112 231.122 695.932 230.137 696.917 229.644C697.573 229.152 698.886 229.152 699.543 229.316C700.035 229.48 700.528 230.958 700.199 231.45C698.23 234.569 698.558 239.165 694.455 240.971C693.634 241.299 692.814 242.12 692.321 242.941C691.993 243.597 691.993 244.746 692.321 245.403C692.486 245.731 693.634 245.731 694.455 245.731C694.947 245.731 695.604 245.403 696.096 245.567C697.738 245.567 698.394 246.716 697.245 247.701C694.783 249.671 694.291 253.775 690.188 253.775C689.86 253.775 689.203 254.267 689.203 254.596C689.367 257.879 686.905 257.879 684.607 258.207C684.115 258.207 683.787 259.028 683.459 259.356C683.951 259.52 684.443 259.52 684.772 259.848C685.1 260.341 685.592 261.162 685.428 261.49C683.294 265.265 681.161 269.041 679.027 272.652C678.699 273.145 678.042 273.309 677.55 273.473C675.909 273.801 675.581 274.95 676.073 276.428C676.894 278.398 676.073 279.875 675.088 281.681C674.103 283.651 671.97 285.785 674.596 288.247C674.76 288.411 674.432 290.052 673.939 290.217C671.642 291.366 670.985 292.679 672.955 294.977C673.447 295.47 673.447 296.454 673.611 297.275C672.79 297.439 671.97 297.768 671.149 297.768C670.493 297.768 669.508 297.768 669.016 297.439C665.897 295.141 661.958 293.5 660.153 290.381C658.511 287.426 659.004 283.158 658.676 279.383C658.676 278.89 659.66 278.562 659.989 277.905C660.481 277.249 661.302 276.428 661.466 275.607C662.122 271.175 664.584 267.728 669.18 266.907C672.955 266.25 673.939 263.952 674.596 259.848C670.329 263.624 664.584 263.952 662.122 269.533C661.794 269.369 661.466 269.205 661.302 268.877C661.63 266.579 661.794 264.281 662.286 261.162C660.809 263.46 659.66 264.937 658.676 266.415C658.183 267.235 658.019 268.22 658.019 269.205C657.855 269.862 658.183 270.682 658.183 271.339C657.855 273.473 656.378 274.458 654.408 274.95C651.782 275.607 652.275 272.981 650.633 271.339C650.798 273.145 650.798 273.966 650.962 274.95C651.618 278.562 649.813 281.517 646.038 282.009C644.233 282.337 642.755 282.501 641.442 283.815C639.965 285.128 638.488 284.635 637.339 283.158C636.355 281.681 635.37 280.039 634.549 278.398C633.072 275.443 631.923 272.324 630.118 269.533C628.805 267.235 626.999 265.101 625.03 263.131C622.896 261.162 620.434 260.669 617.48 261.654C608.945 264.445 608.453 264.773 608.289 273.637C608.289 275.443 607.797 277.413 607.961 279.218C608.125 281.517 608.617 283.979 609.274 286.277C610.587 290.545 612.885 294.485 611.407 299.081C611.243 299.737 611.572 300.394 611.572 301.215C611.736 302.856 612.064 304.334 609.602 302.856C609.274 302.692 607.961 303.513 607.797 304.005C606.976 305.975 605.335 306.632 603.529 307.288C599.098 308.93 594.502 310.243 590.399 312.541C585.476 315.168 581.044 318.451 576.449 321.734C571.689 325.017 569.063 329.613 568.078 335.194C567.914 336.179 566.929 337 566.109 337.657C564.796 338.806 563.319 339.627 562.006 340.776C560.036 342.253 559.051 344.223 559.38 346.685C559.544 347.342 559.544 348.162 559.544 348.819C559.215 350.953 558.231 351.446 556.261 350.132C552.65 347.834 547.891 348.819 546.085 352.595C545.265 354.4 543.952 355.221 542.31 355.549C540.505 356.042 539.52 357.027 538.864 358.832C538.043 361.295 536.566 363.429 535.417 365.727C535.089 366.383 535.089 367.697 535.417 368.025C535.91 368.517 537.058 368.517 537.715 368.189C539.192 367.532 540.669 366.712 541.654 365.727C542.967 364.249 544.116 364.414 545.101 365.891C546.249 367.533 547.234 369.174 548.383 370.816C544.116 371.8 538.371 375.083 534.432 378.859C534.925 379.187 535.417 379.351 535.91 379.68C536.566 380.172 537.387 380.665 538.043 381.157C537.223 381.65 536.402 382.306 535.417 382.47C532.955 382.634 530.493 382.634 528.196 382.47C526.554 382.306 525.57 382.963 524.749 384.276C523.6 386.082 522.123 387.559 520.81 389.365C519.989 390.514 519.661 391.499 517.527 391.335C515.394 391.17 514.901 392.976 516.707 394.782C517.692 395.931 517.527 396.423 516.379 397.08C513.588 398.721 510.798 397.244 508.008 396.916C507.68 396.916 507.352 395.603 507.516 395.11C507.844 394.289 508.501 393.469 509.157 392.976C510.306 392.32 511.783 391.991 512.768 391.17C513.424 390.678 513.424 389.529 512.111 389.365C507.352 389.201 510.962 377.71 512.604 375.412C513.096 374.591 513.917 373.77 514.081 372.785C514.901 369.831 512.44 367.697 511.783 364.906C511.127 361.459 512.275 358.012 512.768 354.729C513.424 351.117 511.619 348.162 508.172 346.685C507.68 346.521 507.188 345.864 506.695 345.536C507.352 345.044 508.008 344.387 508.665 344.223C511.455 343.895 513.424 345.208 515.23 347.342C515.722 347.998 516.379 348.655 517.035 348.819C519.825 349.312 522.779 349.64 525.898 350.132C525.898 349.312 525.734 347.998 526.062 347.013C527.211 343.895 527.211 344.059 524.585 342.581C523.108 341.761 521.631 340.94 520.154 339.955C519.661 339.627 519.169 339.134 519.169 338.806C518.84 334.374 514.901 333.717 511.947 333.553C508.829 333.389 505.546 334.866 502.264 335.687C502.1 335.687 502.264 337.328 502.428 337.328C504.397 337.821 504.562 338.97 504.233 340.776C503.741 343.73 503.905 343.566 500.951 342.253C500.458 341.925 499.474 342.253 498.817 342.417C496.684 343.238 494.55 341.925 494.386 339.791C494.386 339.298 494.878 338.642 495.206 338.477C495.699 338.313 496.355 338.313 496.848 338.313C498.325 338.642 499.802 338.149 499.638 336.672C499.474 335.687 497.832 334.866 496.683 334.21C496.191 333.881 495.206 334.21 494.55 334.374C488.641 335.687 482.897 336.836 476.988 338.149C476.988 338.149 476.824 337.985 476.66 337.657C476.004 334.21 476.004 334.374 473.214 336.015C472.393 336.508 471.08 336.344 470.095 336.344C469.931 335.359 469.603 334.045 469.931 333.225C470.587 331.911 471.244 331.091 469.11 331.091C466.977 331.091 466.32 329.777 466.32 328.136C466.32 326.002 465.992 324.36 463.202 325.509C462.545 325.674 461.068 325.181 460.74 324.525C460.412 323.868 460.904 322.719 461.396 321.898C462.053 320.913 462.874 319.928 463.202 318.287C461.396 318.779 459.427 318.943 457.622 319.6C449.743 321.898 449.579 321.734 444.82 315.332C443.671 313.855 442.03 312.541 440.388 311.556C438.419 310.243 429.884 311.556 426.93 311.228C425.945 311.064 424.632 311.228 424.468 312.213C424.304 312.706 424.632 313.198 424.796 313.69C426.274 317.466 422.334 321.077 418.724 323.211C418.231 322.719 417.739 322.226 417.247 321.898C416.59 324.032 415.769 326.166 415.113 328.3C414.785 329.121 414.621 329.777 413.964 330.27C413.143 330.762 412.159 330.762 411.174 330.598C407.399 330.27 403.624 330.434 400.013 331.091C396.567 331.747 393.12 333.06 389.673 332.732C384.093 332.404 379.498 328.464 375.395 324.689C375.395 327.479 374.574 331.255 371.62 331.419C370.963 331.419 370.307 331.255 369.65 331.091C366.86 330.27 364.07 329.449 361.28 328.628C361.936 325.838 364.234 323.375 366.86 322.391C365.219 320.421 362.264 319.764 359.967 320.421C363.413 319.272 361.28 314.183 359.474 312.87C357.341 314.511 354.386 317.466 357.341 319.928C357.669 320.092 357.669 321.241 357.505 321.57C355.699 323.868 354.879 326.987 351.268 327.808C335.02 331.419 318.607 334.045 302.03 335.687C270.682 338.642 239.334 339.298 207.986 338.642C179.428 338.149 151.035 336.508 122.641 332.732C115.419 331.747 86.0407 330.926 82.7582 323.211C82.2658 322.062 82.2658 320.749 81.7735 319.6C80.9528 316.809 77.9986 314.675 75.0443 314.84C76.8497 314.347 77.1779 311.885 76.3573 310.243C75.3726 308.602 73.7313 307.781 72.09 306.96C73.7313 305.319 74.0596 302.528 72.5824 300.722C71.1053 298.917 68.3152 298.424 66.3456 299.573C64.212 304.005 67.8228 308.93 71.2694 312.541C74.5519 316.153 77.9986 321.406 75.5367 325.674C77.6703 324.853 79.804 327.972 78.6551 330.106C77.5062 332.076 74.5519 332.568 72.4183 331.747C70.2847 330.762 68.6434 328.957 67.1663 327.151C63.7196 323.047 60.4371 318.779 56.9905 314.675C54.8568 312.049 52.7232 307.781 55.3492 305.647C47.4712 304.005 44.0245 294.977 41.8909 287.262C41.5627 285.784 41.3985 283.651 43.0398 283.322C43.8604 283.158 44.681 283.651 45.3375 284.307C49.9331 288.083 54.5286 291.858 59.1241 295.798C61.4219 294.813 60.273 291.037 58.1394 289.56C56.0057 288.247 53.0515 287.754 51.5743 285.785C49.9331 283.651 50.0972 280.696 50.4254 277.905C51.2461 269.862 51.2461 261.818 50.4254 253.775C49.7689 247.537 47.9636 240.478 42.3833 238.016C43.8604 240.807 43.6963 244.254 42.2192 247.044C37.1313 240.643 38.116 231.122 41.8909 223.899C45.8299 216.348 52.5591 209.125 50.7537 200.918C49.7689 196.65 46.4864 193.202 43.8604 189.591C38.4443 182.204 40.2496 171.698 39.5931 162.834C39.429 160.372 38.9366 157.746 38.2801 155.283C36.9671 150.359 35.6541 145.598 34.3411 140.838C33.0281 135.913 29.7456 134.6 25.3142 136.898C23.1806 138.047 21.2111 139.525 19.0774 140.51C17.7644 141.166 16.1232 141.987 14.646 141.987C13.6613 141.987 12.6765 140.838 11.8559 140.017C11.6918 139.853 12.5124 138.376 13.333 138.047C15.4667 137.062 15.6308 135.585 14.9743 133.779C13.9895 130.168 13.0048 126.557 11.5276 123.273C10.8711 121.632 10.5429 120.483 11.3635 118.841C11.8559 117.856 11.8559 116.543 12.3483 114.738C11.1994 115.23 10.707 115.394 10.2146 115.558C6.60386 118.021 6.43973 118.021 5.61911 113.589C5.29085 111.947 4.63435 111.947 3.32134 111.947C-0.453549 111.783 -0.781801 111.126 1.18771 107.843C7.58861 97.0091 14.1536 86.175 20.5546 75.341C37.6236 46.9426 54.3645 18.38 68.9717 -11.3316C70.4488 -14.2863 70.6129 -14.4505 73.2389 -12.3165C76.0291 -10.0183 79.9681 -8.70514 80.4605 -4.27302C83.743 -2.9598 83.0865 -0.00504303 83.9071 2.45724C85.3842 7.21767 89.4874 9.51579 93.2623 12.1422C94.247 12.7988 94.9035 12.1422 95.0677 11.1573C95.2318 10.5007 95.2318 9.8441 95.3959 8.85918C95.8883 9.67994 96.2165 10.1724 96.5448 10.5007C97.3654 11.3215 98.1861 12.1422 99.0067 10.1724C99.4991 8.85919 100.648 7.71012 101.633 6.88936C102.453 6.23275 103.93 5.74029 104.751 6.0686C107.705 7.38181 109.675 6.0686 111.644 4.26292C112.301 3.77046 113.121 2.9497 113.778 2.9497C117.553 2.9497 121.328 3.278 125.103 2.12893C125.759 1.96478 126.908 2.78555 127.565 3.44216C128.713 4.75538 127.893 6.7252 126.252 6.39689C120.671 5.24783 115.912 8.20258 110.66 8.69503C108.034 9.02334 103.93 13.1272 103.766 15.5894C103.766 16.2461 104.259 17.231 104.751 17.5593C105.243 17.8876 106.556 17.7234 107.049 17.3951C108.034 16.4102 108.69 15.097 109.511 13.9479C111.973 10.5007 114.106 10.1724 118.209 10.829C121.656 11.3215 125.431 12.3064 128.221 9.02335C128.549 8.69504 129.37 8.53088 129.534 8.69503C131.832 10.9932 132.324 8.69504 133.145 7.38182C134.294 5.57614 135.278 3.60631 136.756 1.96478C138.233 0.159104 139.217 0.1591 140.202 2.29308C141.515 5.24783 142.5 8.36674 143.649 11.4856C144.305 13.2913 144.634 15.097 145.29 16.7385C146.111 18.38 147.424 18.5442 148.737 17.231C149.557 16.2461 150.05 15.097 150.542 13.9479C151.363 12.6347 151.855 11.1573 153.004 10.0083C153.496 9.5158 154.809 9.84411 155.794 9.84411C155.794 10.6649 155.958 11.6498 155.466 12.1422C153.989 13.9479 155.138 17.0668 152.348 18.5442C152.183 18.7083 152.84 20.8423 153.332 21.8272C154.153 23.3046 155.138 21.9914 155.63 21.3348C156.615 20.3499 157.6 19.2008 158.092 18.0517C158.913 15.9177 159.897 15.4253 162.031 16.4102C163.508 17.0668 165.149 17.3951 166.791 17.5593C169.745 17.8876 171.058 18.7083 171.55 21.4989C172.043 23.6329 173.027 25.4386 174.833 26.2594C178.279 27.7367 180.577 30.3632 183.367 32.6613C184.844 33.9745 186.486 35.1236 188.291 36.1085C189.604 36.7651 190.917 37.9142 192.066 35.616C192.722 34.3028 193.871 34.7953 195.02 35.7802C196.99 37.4217 198.959 38.8991 200.929 40.5406C203.391 42.5105 203.719 45.3011 203.391 48.42C199.944 46.9426 197.154 47.435 194.2 49.7332C195.349 53.0162 197.154 54.6578 200.929 54.6578C205.032 54.6578 209.135 55.971 213.238 56.4634C216.028 56.7917 219.147 57.12 220.952 54.0011C221.116 53.837 222.429 54.0011 222.922 54.3294C224.891 55.8068 226.532 57.7766 228.502 59.0899C230.143 60.2389 232.933 60.5672 233.918 62.2088C234.903 63.6861 234.246 66.3126 234.41 68.2824C234.575 69.1032 235.067 69.9239 235.395 71.073C236.544 70.5805 237.365 69.9239 238.349 69.5956C240.319 68.7749 240.975 67.6258 239.334 65.656C236.708 62.7012 237.693 59.0899 238.021 55.8068C238.021 55.1502 238.842 54.3294 239.334 53.837C240.975 52.1955 242.453 50.5539 244.258 49.2407C245.243 48.42 246.884 48.2558 248.033 47.7633C248.525 47.435 249.018 46.9426 249.51 46.4501C249.018 45.9577 248.525 45.3011 248.033 45.1369C247.212 44.9727 246.392 44.9727 245.571 45.301C244.75 45.6293 243.93 46.4501 243.109 47.1067C241.468 48.2558 239.827 50.5539 238.185 50.5539C235.723 50.5539 233.262 48.9124 230.8 47.5992C236.38 45.1369 241.96 43.3312 247.705 41.3614C248.361 41.1972 249.018 40.8689 249.674 41.0331C251.151 41.1972 251.972 42.8388 252.464 44.3161C252.957 45.7935 253.285 47.435 254.434 48.2558C255.747 49.0765 257.88 48.0916 257.388 46.6143C258.045 46.286 259.029 46.9426 259.193 47.7633C259.358 48.5841 259.358 49.4049 259.686 50.0615C260.342 51.5388 262.312 51.703 263.953 51.8671C267.4 52.1954 277.247 59.7465 280.037 58.4332C282.499 57.2842 285.618 56.4634 286.931 54.4936C288.408 52.0313 290.049 52.3596 292.019 52.6879C292.347 52.6879 292.511 52.5238 293.167 52.3596C291.854 50.3898 290.706 48.42 289.557 46.4501C289.885 46.1218 289.885 45.7935 290.049 45.7935C291.034 45.4652 292.019 45.1369 293.003 44.8086C292.183 44.152 291.362 43.1671 290.541 43.0029C289.064 42.8388 288.244 42.3463 287.587 41.0331C287.259 40.3765 286.11 39.884 285.289 39.7199C282.992 39.0633 282.007 36.9293 283.648 35.1236C284.305 34.3028 285.125 33.8104 285.946 33.3179C286.931 32.6613 287.915 32.0047 286.767 30.5273C286.438 30.199 286.438 29.05 286.767 28.7216C287.751 27.7367 288.08 27.0801 287.423 25.6027C287.095 24.9461 288.572 23.6329 289.228 22.4838C290.049 22.9763 290.87 23.4688 291.69 24.1254C293.332 25.6027 294.645 27.4084 296.286 28.5575C298.912 30.3632 302.523 33.6462 303.672 36.2726C304 37.0934 304.492 38.7349 304.328 38.7349C302.523 39.5557 302.687 42.6746 300.061 42.5104C298.748 42.3463 297.271 42.5104 294.973 42.5104C296.45 43.9878 297.435 45.1369 298.419 45.9577C298.748 46.286 299.076 46.4501 299.568 46.4501C302.851 46.4501 303.179 46.6143 301.374 49.2407C296.286 56.2993 305.641 58.7615 308.431 62.5371C309.252 62.3729 309.58 61.388 309.252 60.7314C308.924 60.0748 308.267 59.4182 307.775 58.9257C304.985 56.1351 304.328 51.3747 306.298 47.9275C308.103 49.0766 310.237 46.9426 311.385 45.1369C313.683 41.5255 315.981 37.2576 314.176 33.4821C313.355 33.8104 312.534 34.1387 311.878 34.467C311.057 33.4821 310.237 32.333 310.072 30.8556C309.908 28.5575 313.191 27.5726 314.832 27.4084C314.996 26.916 314.832 26.2593 314.34 26.0952C310.072 24.782 305.805 23.6329 301.538 22.4838C297.763 21.4989 294.973 17.3951 295.137 13.4555C295.301 10.6649 295.465 7.71012 295.301 4.91953C295.137 1.96479 295.793 -0.333353 299.076 -1.31827C299.568 -1.48242 300.225 -2.46734 300.061 -2.79564C298.584 -7.22776 300.717 -9.19759 302.687 -11.4957Z" fill="#3A73D8"/>
<path d="M378.02 -1.15415C375.887 -0.333389 374.081 -0.825844 372.44 -2.30322C371.948 -2.79567 371.455 -3.45229 370.963 -3.78059C370.307 -4.1089 369.486 -3.94474 368.665 -4.10889C368.994 -3.45228 369.158 -2.79567 369.486 -2.30322C370.142 -1.64661 371.127 -1.3183 371.948 -0.66169C372.604 -0.169231 373.097 0.487377 373.589 0.979836C372.768 1.47229 372.112 2.45721 371.291 2.45721C368.994 2.45721 366.86 2.12891 364.562 1.63645C363.249 1.30814 362.593 1.30814 361.772 2.62136C359.638 6.23272 359.638 6.06856 356.356 3.60627C355.864 3.27797 355.535 2.94967 354.715 2.45721C353.894 5.08365 352.745 7.21762 349.627 5.5761C349.463 5.41195 348.97 5.5761 348.806 5.5761C348.15 5.9044 347.493 6.23271 346.837 6.39686C347.165 5.5761 347.657 4.75534 348.15 3.60627C345.852 3.27797 343.39 3.93458 341.585 1.8006C340.107 -0.00508118 338.302 -1.3183 336.661 -2.95983C336.497 -3.12398 336.661 -4.27305 336.989 -4.60135C337.481 -5.09381 338.302 -5.25797 339.943 -5.91458C337.481 -6.73534 335.676 -7.06364 334.035 -7.8844C331.081 -9.19762 328.126 -10.675 325.336 -12.3165C323.367 -13.4656 320.905 -14.7788 322.382 -18.0619C322.382 -18.226 322.546 -18.3902 322.382 -18.5543C318.771 -22.494 322.382 -26.7619 321.889 -30.8658C321.725 -32.0148 322.546 -33.328 323.038 -34.4771C323.531 -35.6262 324.515 -36.7753 324.68 -37.9243C325.664 -43.998 331.081 -45.4753 335.184 -48.2659C336.004 -48.7584 337.317 -48.9225 338.466 -48.5942C341.092 -47.9376 341.42 -46.9527 339.451 -44.9829C337.481 -42.8489 336.661 -40.3866 336.825 -37.4319C337.153 -34.1488 337.317 -30.8658 337.974 -27.5827C338.63 -24.7921 340.107 -22.3298 342.569 -20.5241C347.493 -17.0769 347.493 -17.0769 345.852 -11.4958C346.344 -11.4958 347.001 -11.3316 347.329 -11.4958C348.642 -12.1524 350.447 -9.52593 351.432 -11.9882C352.417 -14.4505 351.268 -17.7336 349.298 -19.0468C348.642 -19.5392 347.985 -20.1958 347.165 -20.36C344.375 -21.3449 343.39 -23.1506 344.211 -25.9412C344.375 -26.4336 344.375 -27.4186 343.882 -27.7469C340.6 -31.6865 341.092 -36.6111 339.615 -41.0432C339.451 -41.6998 340.436 -43.1772 341.092 -43.5055C344.211 -45.147 346.18 -47.4452 348.15 -50.2358C350.283 -53.3547 353.237 -53.1905 354.879 -49.7433C356.684 -46.2961 358.982 -43.013 359.967 -39.4017C360.951 -36.4469 363.413 -33.4922 361.772 -29.8808C361.608 -29.7167 362.429 -28.5676 362.757 -28.5676C366.039 -28.4035 367.516 -30.2091 366.86 -33.4922C366.696 -34.4771 366.696 -35.6262 366.532 -36.6111C367.516 -36.1186 368.665 -35.9545 369.65 -35.2979C371.948 -33.8205 371.948 -33.6563 375.723 -36.9394C375.723 -37.1036 375.559 -37.4319 375.394 -37.596C374.41 -38.4168 373.261 -39.2375 372.112 -40.0583C373.425 -41.6998 374.574 -43.5055 376.051 -44.8187C376.872 -45.4753 378.513 -45.3112 379.826 -45.3112C381.795 -45.4753 383.601 -45.4753 384.257 -47.7735C384.421 -48.2659 385.078 -48.9225 385.406 -48.9225C388.196 -48.4301 390.986 -47.9376 393.612 -46.9527C395.746 -46.2961 395.746 -43.998 395.746 -42.1923C395.91 -37.2677 395.91 -37.2677 400.834 -38.2526C404.937 -39.0734 409.04 -39.8941 412.979 -40.7149C414.949 -41.0432 415.605 -40.5508 415.113 -38.4168C414.621 -36.2828 414.456 -33.9847 414.292 -31.6865C420.365 -33.4922 426.109 -35.2979 432.51 -37.2677C431.854 -34.9696 431.525 -33.4922 431.197 -32.179C431.525 -32.0148 431.854 -31.6865 432.018 -31.5224C432.51 -32.3431 432.838 -33.1639 433.495 -33.9847C435.957 -36.6111 438.747 -36.2828 440.717 -33.328C441.537 -32.0148 442.686 -30.8658 443.671 -29.5525C441.865 -28.0752 440.06 -26.7619 438.419 -25.2846C438.419 -25.1204 438.583 -24.9563 438.583 -24.7921C440.552 -25.4487 442.522 -26.2695 444.491 -26.9261C445.64 -27.2544 446.953 -27.5827 448.266 -27.7469C450.236 -27.911 451.877 -26.9261 452.041 -25.1204C452.041 -24.1355 450.892 -22.3298 449.743 -22.0015C447.61 -21.1808 446.953 -20.36 448.102 -18.0619C448.43 -17.5694 447.282 -16.4203 446.953 -15.5996C446.625 -14.943 446.461 -14.1222 446.297 -13.3014C447.117 -13.1373 447.938 -12.6448 448.595 -12.6448C450.072 -12.809 451.877 -12.809 452.698 -13.6297C454.503 -15.4354 456.308 -14.943 458.114 -14.6147C459.591 -14.2864 460.904 -14.1222 462.217 -13.6297C464.515 -12.809 466.32 -12.809 468.126 -14.943C470.095 -17.2411 470.587 -16.9128 472.721 -14.7788C472.885 -14.6147 473.049 -14.1222 473.213 -14.1222C478.465 -14.6147 478.958 -9.69009 481.091 -6.89949C481.091 -6.73534 481.42 -6.73534 481.42 -6.73534C485.687 -11.0033 485.687 -11.0033 488.477 -7.06364C489.462 -8.04856 490.447 -9.03347 491.596 -9.85423C493.237 -11.1674 495.206 -11.6599 497.176 -11.0033C498.981 -10.3467 500.13 -9.52593 499.802 -7.22779C499.309 -4.27305 498.981 -1.3183 502.1 0.979836C503.741 2.1289 502.592 3.93458 501.279 5.08365C499.638 6.56102 498.489 7.71008 501.115 9.67991C501.935 10.3365 501.935 12.3064 502.264 13.6196C502.592 15.0969 501.935 15.9177 500.294 16.0819C495.863 16.246 491.76 15.7536 488.477 12.3064C486.836 10.3365 484.702 10.0082 482.404 10.0082C479.45 10.1724 476.332 10.0082 473.378 10.1724C471.736 10.1724 470.095 10.6648 467.469 11.1573C470.259 13.2913 472.065 14.9328 474.198 16.5743C475.511 17.5592 476.496 18.2159 474.855 19.8574C474.362 20.3498 474.362 21.6631 474.691 22.4838C475.019 23.6329 475.839 24.2895 476.824 23.1404C478.301 21.1706 479.943 21.4989 481.748 22.1555C487.492 24.1253 493.237 26.0952 499.145 28.065C501.771 28.8857 499.802 30.6914 500.13 32.0047C500.458 32.0047 500.951 32.333 501.279 32.1688C505.874 31.5122 508.008 32.4971 509.649 36.7651C511.455 41.1972 513.096 45.6293 515.065 50.3897C505.71 48.0916 496.683 49.4048 487.492 50.3897C487.492 50.718 487.328 51.0463 487.328 51.5388C488.805 52.0313 490.118 52.8521 491.596 53.0162C496.191 53.837 500.787 55.3143 505.546 54.3294C505.71 54.3294 505.874 54.3294 506.039 54.3294C508.336 54.3294 509.813 55.9709 511.455 57.4483C513.917 55.8068 515.065 57.9408 516.378 59.0898C518.184 60.7314 518.184 61.8804 516.05 63.1937C513.917 64.671 511.619 66.1484 508.665 66.1484C503.741 66.4767 498.653 67.1333 493.729 67.6258C491.924 67.7899 489.954 67.4616 488.149 67.2975C486.015 66.9692 485.195 67.7899 485.195 69.9239C485.195 71.2371 485.03 71.4013 483.225 71.4013C482.076 71.4013 481.748 71.5654 482.569 70.0881C483.553 68.6107 482.076 67.6258 480.435 67.2975C477.481 66.805 474.526 66.3125 471.572 65.9842C469.767 65.8201 468.782 65.3276 470.095 63.3578C470.423 62.7012 470.423 61.8804 470.587 61.0597C469.767 61.0597 468.946 60.7314 468.126 60.8955C467.305 61.0597 466.484 61.2238 465.664 61.5521C464.022 62.2087 462.709 61.8804 461.725 60.2389C459.755 57.12 457.129 56.1351 453.682 58.2691C453.354 58.5974 452.205 58.1049 451.549 57.6125C450.564 56.7917 449.743 55.8068 448.923 54.8219C447.61 53.3445 446.461 52.0313 444.327 53.837C443.671 54.3294 442.522 54.1653 441.537 54.1653C440.388 54.1653 439.075 53.837 437.762 53.6728C438.09 56.1351 438.911 56.7917 441.045 56.6276C442.686 56.4634 444.491 56.2992 446.133 56.4634C446.953 56.6275 447.61 57.6125 448.266 58.1049C447.774 58.5974 447.282 59.4182 446.625 59.5823C441.865 61.0597 438.419 64.1786 435.793 68.2824C434.808 69.9239 433.823 70.5805 432.018 69.7598C431.69 69.5956 431.525 69.5956 431.197 69.5956C428.735 68.7748 425.289 68.6107 424.304 66.9692C422.334 64.0144 421.678 60.0747 420.857 56.4634C420.365 53.837 421.678 52.5237 424.304 51.8671C425.781 51.5388 427.422 51.0464 428.899 50.8822C433.003 50.0614 436.449 48.4199 438.255 44.1519C438.747 43.0029 440.388 42.3463 441.209 41.1972C442.03 40.2123 442.194 39.2274 440.552 38.7349C437.106 37.4217 436.449 36.4368 436.942 32.8254C437.434 28.7216 437.926 24.6178 438.747 20.514C439.075 18.38 438.583 16.9026 437.27 15.4252C434.808 12.4705 432.346 9.51577 429.72 6.56102C429.228 5.90441 428.079 5.5761 427.258 5.5761C425.617 5.5761 423.976 5.5761 422.499 6.06856C420.037 6.88932 418.395 5.08364 416.426 4.42704C416.098 4.26288 416.098 3.11381 416.098 2.29305C416.098 1.47229 416.262 0.487373 416.262 -0.333389C415.277 -0.00508499 413.964 -0.169239 413.308 0.487373C412.159 1.47229 411.338 2.94967 410.681 4.26289C409.861 5.90441 408.712 6.23271 407.235 5.5761C405.758 4.91949 405.101 3.77042 405.594 2.1289C405.758 1.47229 406.25 0.815678 406.578 0.323223C407.399 -0.661694 407.399 -1.3183 406.414 -2.13906C404.773 -3.28814 403.46 -4.76551 401.819 -5.91458C401.162 -6.40704 400.013 -6.57118 399.193 -6.40703C397.551 -6.07872 395.91 -5.42212 394.433 -4.60135C392.628 -3.61644 391.479 -3.94475 390.986 -6.07873C390.822 -6.73534 390.658 -7.39194 390.494 -8.2127C389.673 -11.8241 388.032 -13.3014 384.421 -12.9731C383.601 -12.9731 382.78 -12.1524 381.959 -11.6599C382.288 -11.0033 382.616 -10.0184 383.272 -9.52593C384.093 -8.86932 385.078 -8.86932 385.899 -8.37687C386.555 -8.04856 387.54 -7.39195 387.54 -6.89949C387.54 -5.75042 387.047 -4.60135 385.406 -4.7655C383.765 -4.92966 382.288 -5.09382 380.646 -5.09382C376.707 -6.07873 376.379 -5.58627 378.02 -1.15415Z" fill="#3A73D8"/>
<path d="M253.613 29.5424C251.644 28.7217 249.182 29.05 247.376 30.0349C237.529 35.2878 231.128 41.8539 219.147 43.3312C217.834 43.4954 216.521 43.4954 215.372 43.3312C209.463 42.6746 208.643 41.6897 207.658 35.7802C207.001 31.5123 207.001 31.6764 202.406 31.6764C200.765 31.6764 198.631 31.6764 197.646 30.6915C195.184 28.5575 193.379 25.7669 191.245 23.1405C191.081 22.8121 191.245 21.9914 191.574 21.6631C193.215 20.1857 195.02 18.7084 196.826 17.231C196.99 17.0668 197.482 17.0668 197.646 17.0668C199.452 19.365 200.765 17.8876 202.734 17.0668C203.883 16.5744 206.017 17.5593 207.33 18.38C208.971 19.5291 210.284 20.8423 212.418 18.8725C213.238 18.0517 215.208 18.38 216.521 18.5442C218.654 18.7083 219.311 17.0668 219.475 15.5895C219.639 14.9328 218.49 13.7838 217.67 13.2913C215.536 12.1422 213.238 11.1573 210.94 10.3366C209.299 9.84411 207.494 9.51581 205.853 10.0083C201.421 11.4856 195.513 10.3366 191.902 7.38183C186.157 2.6214 192.394 2.6214 196.497 -0.497499C196.826 -0.661652 196.99 -0.825806 197.154 -1.15411C197.482 -1.97487 196.497 -2.79563 195.677 -2.95979C194.856 -3.12394 193.871 -2.79563 192.887 -2.95979C190.917 -3.45224 189.932 -5.75038 189.44 -7.88436C189.112 -9.52589 188.783 -11.4957 189.932 -12.6448C191.081 -13.7939 193.543 -13.6297 193.871 -15.2712C194.036 -15.9278 193.707 -16.7486 194.2 -17.2411C194.692 -17.7335 195.513 -17.5694 196.005 -17.7335C197.482 -18.0618 197.81 -20.1958 199.123 -21.1807C199.944 -21.6732 200.929 -21.8373 201.914 -22.0015C203.719 -22.4939 203.883 -24.4638 205.524 -25.2845C207.001 -26.1053 208.971 -26.2694 210.448 -26.9261C210.776 -27.0902 212.089 -25.6128 211.925 -24.9562C211.925 -23.3147 211.269 -21.6732 211.105 -19.8675C211.105 -19.2109 211.433 -18.3901 211.761 -17.7335C212.253 -18.0618 213.238 -18.3901 213.402 -18.8826C213.895 -20.3599 214.715 -21.1807 216.192 -20.8524C222.101 -19.5392 225.876 -16.092 221.773 -9.85419C222.101 -9.19758 223.086 -9.19758 223.742 -9.69004C224.399 -10.0183 224.891 -10.675 225.712 -10.8391C227.189 -11.0033 228.338 -9.19758 229.651 -9.69004C230.143 -10.0183 230.471 -10.5108 230.636 -11.1674C231.456 -13.6297 230.8 -16.5844 229.323 -18.7184C229.979 -19.5392 231.292 -19.0467 232.113 -18.3901C234.575 -16.4203 236.544 -13.7939 237.529 -11.0033C238.349 -8.86928 238.842 -6.40699 240.647 -5.09377C241.468 -7.55606 240.975 -10.1825 240.319 -12.6448C239.662 -15.1071 239.17 -17.8977 240.155 -20.1958C241.14 -22.4939 244.422 -24.1355 246.392 -22.4939C247.212 -21.8373 247.541 -20.6883 248.033 -19.7033C249.838 -14.7788 258.373 -0.00504684 255.911 4.75538C254.598 7.38182 255.583 9.35165 257.88 10.5007C259.686 11.4856 260.178 14.1121 263.132 13.9479C264.774 13.9479 266.415 16.2461 268.384 17.0668C269.697 17.5593 270.846 18.5442 272.816 17.8876C274.293 17.231 275.442 19.365 275.278 21.0065C275.114 22.3197 276.098 24.6178 273.308 24.4537C272.159 24.4537 271.175 24.4537 270.518 25.7669C270.354 26.2594 269.205 26.7518 268.549 26.5877C265.923 26.0952 265.43 28.065 264.774 29.7066C264.445 30.5273 265.102 31.5123 265.43 32.4972C266.087 32.1689 266.743 31.6764 267.4 31.3481C271.995 29.0499 271.175 34.9594 272.816 37.5859C273.472 38.7349 274.129 39.7199 274.785 40.8689C274.293 41.6897 273.308 40.7048 272.652 40.0482C271.011 38.2425 259.029 37.4217 256.896 38.2425C254.106 39.3916 255.254 34.7953 253.613 33.8104C252.464 33.1538 251.151 32.8255 250.495 31.6764C251.972 31.6764 252.957 30.6915 253.613 29.5424Z" fill="#3A73D8"/>
<path d="M691.501 165.461C691.993 164.64 692.321 164.476 692.321 164.312C692.485 162.67 691.993 160.7 692.65 159.551C693.306 158.566 695.276 158.238 696.589 157.91C696.917 157.746 697.737 158.402 698.066 158.895C698.23 159.059 698.066 159.715 698.066 160.044C697.409 164.64 697.245 164.312 701.512 163.327C704.138 162.67 705.944 161.357 707.749 159.387C710.868 156.104 715.135 155.447 719.894 154.955C719.73 155.94 719.73 156.761 719.566 157.581C719.402 159.551 718.91 161.357 722.028 160.864C723.505 160.7 724.326 161.849 724.162 163.491C724.162 164.312 724.162 165.132 725.147 166.117C726.131 163.819 727.116 161.521 728.101 159.223C728.429 158.402 728.757 157.581 729.25 156.925C729.578 156.432 730.07 155.94 730.399 155.94C730.727 155.94 731.383 156.596 731.383 157.089C731.547 159.059 732.204 161.357 731.383 162.998C730.07 165.789 731.876 167.923 732.04 170.385C732.04 170.714 732.696 171.37 733.189 171.37C733.517 171.37 734.338 170.878 734.338 170.385C734.83 168.744 734.994 167.102 735.322 165.297C735.486 164.476 735.486 163.491 735.815 162.834C736.143 162.342 736.964 161.849 737.456 161.849C737.948 161.849 738.605 162.834 738.605 163.327C738.769 165.132 738.605 167.102 738.605 168.908C738.605 169.564 738.769 170.221 739.425 170.878C739.425 168.58 739.425 166.281 739.425 163.983C739.754 163.819 739.918 163.819 740.246 163.655C740.738 164.476 741.395 165.297 741.723 166.117C742.544 167.923 743.2 169.893 743.857 171.698C744.677 174.489 746.155 176.787 748.781 178.429C751.571 180.07 751.407 180.891 748.452 182.368C748.124 182.533 747.632 182.697 747.304 182.861C743.364 184.338 743.2 184.667 742.051 180.891C741.887 180.563 741.723 180.07 741.395 179.742C741.395 179.578 741.231 179.578 740.738 179.249C740.574 180.563 740.574 181.712 740.246 182.861C740.082 183.517 739.59 184.01 739.425 184.667C738.769 184.338 737.948 184.174 737.62 183.682C736.307 181.548 735.158 179.25 734.009 176.951C733.353 175.474 732.86 173.832 730.727 174.653C728.757 175.474 728.265 176.787 729.086 178.757C729.414 179.414 729.578 180.727 729.25 181.219C727.608 183.682 728.429 186.144 729.086 188.606C729.742 190.576 729.578 192.382 728.101 193.695C727.28 194.352 725.639 195.008 724.818 194.68C723.998 194.352 723.341 192.71 723.341 191.561C723.505 188.77 724.162 185.98 724.654 183.025C724.654 182.533 723.833 181.548 723.505 181.712C722.685 181.876 721.536 182.204 721.043 182.861C720.715 183.353 721.043 184.502 721.043 185.323C721.043 186.308 721.207 187.457 720.715 188.278C720.387 188.934 719.238 189.427 718.581 189.919C718.089 189.263 717.433 188.606 717.268 187.785C716.94 186.965 717.268 185.98 716.776 185.323C716.284 184.667 715.299 184.667 714.642 184.174C714.478 184.831 713.822 185.651 713.986 185.98C714.971 188.606 713.986 190.576 712.837 192.874C712.181 194.187 711.524 195.336 709.719 195.336C709.226 195.336 708.734 195.993 708.242 196.486C707.257 197.306 706.272 198.619 705.123 198.948C701.512 200.261 698.886 202.395 697.245 206.17C695.768 209.618 693.798 209.946 690.844 207.484C690.024 206.827 689.531 205.842 688.546 205.514C686.741 205.021 686.905 203.708 687.233 202.559C687.89 200.261 688.546 197.799 689.039 195.501C689.203 195.172 689.039 194.352 688.875 194.352C688.382 194.187 687.726 194.187 687.398 194.516C686.577 195.008 685.92 195.993 685.1 196.486C684.443 196.978 683.787 197.142 682.966 197.47C682.966 196.65 682.474 195.665 682.802 195.008C684.607 192.218 684.772 189.427 682.966 186.636C682.145 185.323 682.802 184.174 684.115 183.517C685.756 182.533 685.92 181.548 683.951 181.055C682.146 180.563 681.489 179.578 681.817 177.936C682.31 174.982 681.325 172.519 680.012 170.221C677.714 166.117 675.909 161.849 675.745 156.925C675.58 154.791 674.76 152.657 673.939 150.851C672.954 148.881 673.119 147.24 674.432 145.762C676.565 143.3 677.878 140.674 678.371 137.555C678.535 136.734 679.355 135.913 680.012 135.257C680.34 134.928 681.161 134.764 681.489 134.928C681.817 135.092 682.31 136.077 682.145 136.242C681.325 138.047 682.966 140.674 680.176 141.823C680.012 141.987 679.848 142.808 680.012 142.808C680.504 142.972 680.997 143.136 681.489 143.136C681.653 143.136 681.981 142.808 682.31 142.808C683.13 142.315 683.459 140.51 684.936 141.659C686.085 142.643 687.069 144.121 685.92 145.434C684.279 147.24 685.1 148.881 685.756 150.523C687.726 155.447 689.531 160.208 691.501 165.461Z" fill="#3A73D8"/>
<path d="M375.723 93.2336C375.723 93.0694 375.559 92.4128 375.887 91.9204C377.692 87.6524 377.528 87.3241 374.738 83.8769C374.246 83.2203 374.246 82.0712 374.246 81.2504C374.246 80.1014 375.23 78.624 374.738 78.1315C372.44 74.8485 373.753 70.9088 372.604 67.4616C372.44 66.805 372.768 65.8201 372.933 64.9993C373.753 65.1635 374.574 65.1635 375.23 65.656C376.215 66.3126 377.2 66.9692 377.856 67.7899C379.826 70.5805 379.826 70.5805 382.944 68.7748C383.601 68.4465 384.75 68.2824 385.078 68.6107C386.555 70.2522 387.704 70.4164 388.853 68.2824C388.853 68.1182 390.002 68.2824 390.33 68.6107C393.612 72.2221 398.372 73.0428 402.475 75.3409C404.116 76.1617 405.594 77.3108 407.071 78.1315C407.727 78.4598 408.548 78.7881 409.368 78.9523C409.861 79.1164 410.517 78.7881 411.01 78.9523C412.979 79.1164 415.605 78.2957 416.262 80.5938C416.59 81.7429 414.621 83.5486 413.8 85.1901C413.143 86.3392 412.487 86.0109 411.83 85.1901C410.517 83.8769 409.204 84.041 408.22 85.3543C407.235 86.8316 406.25 86.5033 404.937 85.8467C403.624 85.1901 402.311 84.5335 400.998 84.041C398.208 82.892 395.91 84.041 395.09 86.9958C395.09 87.1599 395.09 87.3241 395.09 87.4882C394.761 90.2788 391.643 91.4279 390.986 93.5619C390.33 95.86 390.166 98.1582 388.196 100.128C386.063 102.262 385.242 102.262 383.601 99.7997C382.944 98.9789 382.616 97.994 381.959 97.3374C381.631 97.0091 380.646 96.8449 380.154 97.0091C376.543 98.4865 376.543 98.3223 376.215 94.711C375.887 94.0543 375.887 93.8902 375.723 93.2336Z" fill="#3A73D8"/>
<path d="M290.541 -25.2846C291.198 -22.1657 291.034 -19.3751 292.675 -16.5845C293.824 -14.6147 292.839 -11.3316 292.675 -8.54102C292.675 -8.04856 292.019 -7.39194 291.526 -7.06364C291.034 -6.73533 289.885 -6.57118 289.721 -6.24288C288.9 -3.61644 286.931 -4.4372 285.618 -4.7655C284.961 -2.79567 284.469 -0.990002 283.976 0.651524C282.499 -0.333389 281.022 -1.31829 279.709 -2.46737C278.068 -3.94474 276.427 -5.58627 274.785 -7.22779C273.308 -8.54101 271.995 -9.85424 269.697 -10.0184C267.892 -10.1825 266.579 -11.1675 265.594 -13.4656C264.61 -15.7637 262.968 -18.0619 262.148 -20.5241C261.327 -23.1506 261.819 -23.4789 264.445 -23.3147C266.907 -23.1506 268.877 -22.1657 270.354 -20.1958C271.339 -19.0468 272.323 -18.5543 273.636 -19.5392C275.278 -20.6883 274.129 -22.0015 273.308 -22.8223C271.995 -24.4638 270.354 -25.9412 268.713 -27.4186C267.728 -28.4035 267.564 -28.8959 268.22 -30.5375C269.041 -32.6714 269.697 -34.8054 271.667 -36.4469C273.144 -37.7602 274.293 -37.7602 275.442 -35.7903C277.575 -32.3431 278.888 -32.0148 282.499 -33.4922C283.32 -33.8205 283.976 -34.1488 284.797 -34.6413C285.946 -35.2979 286.931 -34.4771 286.602 -33.8205C285.618 -31.6865 287.259 -29.2242 285.289 -27.2544C283.484 -25.4487 283.648 -22.8223 285.125 -22.0015C286.766 -21.1808 288.244 -21.8374 289.721 -24.1355C289.721 -24.628 290.049 -24.7921 290.541 -25.2846Z" fill="#EAEAEA"/>
<path d="M25.4782 259.028C25.3141 258.043 24.9858 256.894 24.8217 255.909C24.0011 252.462 22.8522 249.014 20.2262 246.388C18.0925 244.254 17.1078 241.792 18.5849 238.673C19.0773 237.524 18.9132 235.718 18.4208 234.569C16.4513 230.137 16.123 225.869 19.4056 221.601C21.3751 223.735 24.6576 224.884 24.8217 228.659C24.8217 228.988 26.463 229.48 26.6271 229.316C27.2836 228.495 27.9401 227.51 28.9248 226.854C29.4172 229.644 28.2683 231.614 26.6271 233.256C25.6423 234.241 24.6576 235.061 23.5087 236.046C21.3751 237.852 21.5392 237.688 23.5087 239.822C24.3293 240.807 24.9858 242.777 24.8217 244.09C24.4935 246.552 24.6576 248.85 25.8065 251.148C26.9553 253.611 26.7912 256.237 25.4782 259.028Z" fill="#EAEAEA"/>
<path d="M630.938 207.976C633.236 205.678 635.698 204.693 638.652 203.708C643.248 202.231 647.515 201.41 652.275 201.574C653.424 201.574 654.737 200.753 656.05 200.589C657.034 200.589 658.019 200.918 659.168 201.246C658.676 202.559 658.511 204.693 657.855 205.021C655.229 205.842 653.752 207.976 651.618 209.289C650.141 210.11 648.007 210.274 646.202 210.11C641.114 209.454 636.19 208.633 630.938 207.976Z" fill="#3A73D8"/>
<path d="M422.335 18.0517C422.006 18.7083 421.842 19.2008 421.514 19.5291C421.35 19.6932 421.022 19.8574 420.857 20.0215C416.918 22.9763 416.754 23.1404 412.323 21.1706C411.502 20.8423 410.846 20.0215 410.353 19.2008C409.697 18.0517 409.205 16.9026 408.876 15.5894C408.548 14.2762 408.056 12.1422 408.548 11.6498C410.025 10.3365 411.831 9.02331 414.292 9.51576C416.426 10.0082 418.231 10.3365 419.216 12.7988C419.873 14.7686 421.186 16.246 422.335 18.0517Z" fill="#3A73D8"/>
<path d="M656.87 244.746C658.347 245.567 659.332 246.388 660.481 246.88C664.912 249.014 667.046 248.358 670.493 244.582C671.97 242.777 673.611 240.971 675.416 239.329C676.073 238.837 677.222 238.509 678.042 238.673C679.355 238.837 680.34 239.658 679.027 240.971C677.222 242.448 676.401 243.761 678.371 245.895C678.699 246.388 677.55 248.686 676.729 249.671C675.581 250.82 674.924 249.835 674.268 248.522C673.775 247.373 672.626 247.865 672.462 248.85C671.642 251.805 669.344 251.641 667.046 251.641C664.256 251.477 662.45 251.312 660.809 250.656C657.527 249.014 657.527 249.014 656.87 244.746Z" fill="#3A73D8"/>
<path d="M414.456 98.3223C412.815 99.7996 412.159 100.456 411.338 101.277C409.368 102.919 408.055 104.724 408.548 107.515C408.712 108.664 408.384 110.141 407.727 111.29C407.235 112.275 406.25 112.768 405.429 113.588C405.101 112.604 404.609 111.783 404.281 110.798C403.952 109.649 403.788 108.5 403.624 107.515C403.132 103.903 405.594 99.3072 409.04 98.1581C410.189 97.6657 411.994 98.1581 414.456 98.3223Z" fill="#3A73D8"/>
<path d="M433.659 103.575C433.331 105.217 433.003 107.187 432.51 109.156C432.346 109.485 431.033 109.813 430.705 109.649C429.556 108.664 428.243 107.679 427.422 106.366C425.945 104.232 427.586 99.9639 429.884 99.1431C431.525 98.4865 433.659 100.785 433.659 103.575Z" fill="#3A73D8"/>
<path d="M50.0972 259.028C48.6201 257.879 47.6353 257.222 46.8147 256.565C45.0093 254.924 44.0245 251.477 45.0093 249.507C45.1734 249.178 47.1429 249.014 47.4712 249.343C48.4559 250.656 49.2766 252.133 49.7689 253.775C50.2613 255.088 49.9331 256.729 50.0972 259.028Z" fill="#EAEAEA"/>
</g>
</g>
<path opacity="0.6" d="M414.5 239C460.616 239 498 201.616 498 155.5C498 109.384 460.616 72 414.5 72C368.384 72 331 109.384 331 155.5C331 201.616 368.384 239 414.5 239Z" fill="#3A73D8"/>
<path d="M426.23 132.645V121.515H414.077H401.925V132.645L392.385 143.605C390.852 145.365 390 147.637 390 149.965V191.589C390 196.927 394.316 201.3 399.71 201.3H414.021H428.331C433.669 201.3 438.041 196.984 438.041 191.589V149.965C438.041 147.637 437.19 145.365 435.656 143.605L426.23 132.645Z" fill="white"/>
<path d="M424.867 123.389H403.345C400.846 123.389 398.859 121.402 398.859 118.903V112.486C398.859 109.988 400.846 108 403.345 108H424.867C427.365 108 429.353 109.988 429.353 112.486V118.903C429.353 121.402 427.365 123.389 424.867 123.389Z" fill="#E43325"/>
<path d="M426.287 123.276H401.982V125.264H426.287V123.276Z" fill="#253368"/>
<path d="M438.155 154.451H390.114V181.538H438.155V154.451Z" fill="white"/>
<path d="M438.155 157.405H390.114V178.643H438.155V157.405Z" fill="#EB3323"/>
<path d="M416.179 158.768H412.09V177.28H416.179V158.768Z" fill="white"/>
<path d="M423.369 170.086V165.997H404.856V170.086H423.369Z" fill="white"/>
<g opacity="0.2">
<path opacity="0.2" d="M435.77 143.605L426.23 132.645V125.263V123.332C427.99 122.935 429.353 121.345 429.353 119.471V111.975C429.353 109.76 427.593 108 425.378 108H414.078V201.3H428.388C433.726 201.3 438.098 196.984 438.098 191.59V181.538V178.586V157.347V154.395V149.908C438.155 147.637 437.303 145.365 435.77 143.605Z" fill="#31364E"/>
</g>
<path d="M554.5 155.5C554.5 232.268 492.268 294.5 415.5 294.5C338.732 294.5 276.5 232.268 276.5 155.5C276.5 78.7324 338.732 16.5 415.5 16.5C492.268 16.5 554.5 78.7324 554.5 155.5Z" stroke="#5E8FB3"/>
<path opacity="0.8" d="M619.5 155.5C619.5 268.166 528.166 359.5 415.5 359.5C302.834 359.5 211.5 268.166 211.5 155.5C211.5 42.8339 302.834 -48.5 415.5 -48.5C528.166 -48.5 619.5 42.8339 619.5 155.5Z" stroke="#5E8FB3"/>
<path opacity="0.6" d="M713.5 161C713.5 319.782 584.782 448.5 426 448.5C267.218 448.5 138.5 319.782 138.5 161C138.5 2.21812 267.218 -126.5 426 -126.5C584.782 -126.5 713.5 2.21812 713.5 161Z" stroke="#5E8FB3"/>
<path d="M141 128C144.314 128 147 125.314 147 122C147 118.686 144.314 116 141 116C137.686 116 135 118.686 135 122C135 125.314 137.686 128 141 128Z" fill="#3A73D8"/>
<path d="M152.5 122C152.5 128.351 147.351 133.5 141 133.5C134.649 133.5 129.5 128.351 129.5 122C129.5 115.649 134.649 110.5 141 110.5C147.351 110.5 152.5 115.649 152.5 122Z" stroke="#5E8FB3"/>
<path d="M153 257C156.314 257 159 254.314 159 251C159 247.686 156.314 245 153 245C149.686 245 147 247.686 147 251C147 254.314 149.686 257 153 257Z" fill="#3A73D8"/>
<path d="M164.5 251C164.5 257.351 159.351 262.5 153 262.5C146.649 262.5 141.5 257.351 141.5 251C141.5 244.649 146.649 239.5 153 239.5C159.351 239.5 164.5 244.649 164.5 251Z" stroke="#5E8FB3"/>
<path d="M439 297C442.314 297 445 294.314 445 291C445 287.686 442.314 285 439 285C435.686 285 433 287.686 433 291C433 294.314 435.686 297 439 297Z" fill="#3A73D8"/>
<path d="M450.5 291C450.5 297.351 445.351 302.5 439 302.5C432.649 302.5 427.5 297.351 427.5 291C427.5 284.649 432.649 279.5 439 279.5C445.351 279.5 450.5 284.649 450.5 291Z" stroke="#5E8FB3"/>
<path d="M288 211C291.314 211 294 208.314 294 205C294 201.686 291.314 199 288 199C284.686 199 282 201.686 282 205C282 208.314 284.686 211 288 211Z" fill="#3A73D8"/>
<path d="M299.5 205C299.5 211.351 294.351 216.5 288 216.5C281.649 216.5 276.5 211.351 276.5 205C276.5 198.649 281.649 193.5 288 193.5C294.351 193.5 299.5 198.649 299.5 205Z" stroke="#5E8FB3"/>
<path d="M339 278C342.314 278 345 275.314 345 272C345 268.686 342.314 266 339 266C335.686 266 333 268.686 333 272C333 275.314 335.686 278 339 278Z" fill="#3A73D8"/>
<path d="M350.5 272C350.5 278.351 345.351 283.5 339 283.5C332.649 283.5 327.5 278.351 327.5 272C327.5 265.649 332.649 260.5 339 260.5C345.351 260.5 350.5 265.649 350.5 272Z" stroke="#5E8FB3"/>
<path d="M535 231C538.314 231 541 228.314 541 225C541 221.686 538.314 219 535 219C531.686 219 529 221.686 529 225C529 228.314 531.686 231 535 231Z" fill="#3A73D8"/>
<path d="M546.5 225C546.5 231.351 541.351 236.5 535 236.5C528.649 236.5 523.5 231.351 523.5 225C523.5 218.649 528.649 213.5 535 213.5C541.351 213.5 546.5 218.649 546.5 225Z" stroke="#5E8FB3"/>
<path d="M619 166C622.314 166 625 163.314 625 160C625 156.686 622.314 154 619 154C615.686 154 613 156.686 613 160C613 163.314 615.686 166 619 166Z" fill="#3A73D8"/>
<path d="M630.5 160C630.5 166.351 625.351 171.5 619 171.5C612.649 171.5 607.5 166.351 607.5 160C607.5 153.649 612.649 148.5 619 148.5C625.351 148.5 630.5 153.649 630.5 160Z" stroke="#5E8FB3"/>
<path d="M579 284C582.314 284 585 281.314 585 278C585 274.686 582.314 272 579 272C575.686 272 573 274.686 573 278C573 281.314 575.686 284 579 284Z" fill="#3A73D8"/>
<path d="M590.5 278C590.5 284.351 585.351 289.5 579 289.5C572.649 289.5 567.5 284.351 567.5 278C567.5 271.649 572.649 266.5 579 266.5C585.351 266.5 590.5 271.649 590.5 278Z" stroke="#5E8FB3"/>
<path d="M212 173C215.314 173 218 170.314 218 167C218 163.686 215.314 161 212 161C208.686 161 206 163.686 206 167C206 170.314 208.686 173 212 173Z" fill="#3A73D8"/>
<path d="M223.5 167C223.5 173.351 218.351 178.5 212 178.5C205.649 178.5 200.5 173.351 200.5 167C200.5 160.649 205.649 155.5 212 155.5C218.351 155.5 223.5 160.649 223.5 167Z" stroke="#5E8FB3"/>
<path d="M248 277C251.314 277 254 274.314 254 271C254 267.686 251.314 265 248 265C244.686 265 242 267.686 242 271C242 274.314 244.686 277 248 277Z" fill="#3A73D8"/>
<path d="M259.5 271C259.5 277.351 254.351 282.5 248 282.5C241.649 282.5 236.5 277.351 236.5 271C236.5 264.649 241.649 259.5 248 259.5C254.351 259.5 259.5 264.649 259.5 271Z" stroke="#5E8FB3"/>
</g>
<defs>
<clipPath id="clip0">
<rect width="727" height="312" fill="white"/>
</clipPath>
</defs>
</svg>
